<?xml version="1.0" encoding="utf-8"?>
<!-- Generator: Adobe Illustrator 25.0.0, SVG Export Plug-In . SVG Version: 6.00 Build 0)  -->
<svg version="1.1" id="Layer_1" xmlns="http://www.w3.org/2000/svg" xmlns:xlink="http://www.w3.org/1999/xlink" x="0px" y="0px"
	 viewBox="0 0 1080 1080" style="enable-background:new 0 0 1080 1080;" xml:space="preserve">
<style type="text/css">
	.st0{fill:#79DA75;}
	.st1{fill:#16C50C;}
	.st2{fill:#13A00E;}
	.st3{fill:#FCB800;}
	.st4{fill:#A9E4A9;}
	.st5{fill:#13A10E;}
	.st6{fill:#A9E3A9;}
	.st7{fill:#A9E3A8;}
	.st8{fill:#EF3A17;}
	.st9{fill:#14A00E;}
	.st10{fill:#A6E3A6;}
	.st11{fill:#1FC713;}
	.st12{fill:#8C5E30;}
</style>
<g>
	<g>
		<path class="st0" d="M188.7,798.4c-0.5-13.2-1.3-34.1-1.4-47.3c-0.1-172.9-0.2-345.8,0.2-518.7c0-8.9-5.3-19.9,5.9-26.7
			c24.2-0.4,46.8,6.6,69.4,14.3c70.1,23.9,140.4,47.2,210.7,70.3c9.4,3.1,18.5,6.9,28.6,7.4c14.3,1.4,26,10.1,39.4,13.9
			c7.8,7.5,20.1,9.4,24.9,20.5c0.6,3,0.6,6,0,9c4.3,66.3,1.7,132.6,2,198.8c0.5,107.8,0.2,215.5,0,323.3c0,14.8,1.5,29.9-4.8,44.1
			c-7.6,14.7-20.6,12.4-32.4,8.6C424.3,881,317.6,845.4,211,809.4C200.8,806,194.3,806.8,188.7,798.4z"/>
		<path class="st1" d="M557.1,912.7c0.5-33,1.3-66.1,1.4-99.1c0.1-148.9,0-297.7,0.2-446.6c0-10.6-2.1-21.5,2.9-31.8
			c12.6-6.2,20,2.9,28,9.8c20,17.2,40.2,34.3,59.2,52.7c13.6,13.2,24.5,12.2,35-5.6c20.9-35.5,44.1-69.7,66.9-104.2
			c7.1-10.7,12.9-25.9,31.1-22.3c0.4,134.7,0.9,269.4,1,404.1c0,57.8-0.8,115.6-1.3,173.5c-7.5,9-16.6,15.4-28,19.1
			c-54,17.6-107.7,36-161.7,53.6c-9.3,3-18.8,6.7-28.8,2.5C560.4,917,558.4,915.1,557.1,912.7z"/>
		<path class="st1" d="M545.4,1057.8c-114.3-37.8-228.7-75.6-343.1-113.1c-10.1-3.3-15-8.4-14.8-19.4c0.7-42,1-84,1.4-126.1
			c0-3.8,3.8-6.5,7.4-5.3c111.6,36.8,223.1,73.7,334.7,110.5c8.4,2.8,16.9,5.3,25.4,8c0.5,0.1,0.9,0.2,1.4,0.2c0.4,0,0.8,0,1.2,0.1
			c2.1,0.1,3.9,1.3,4.8,3.1c7.5,15.3,4.4,31.9,4.7,48c0.4,24-10.1,70.5-11.7,94.5"/>
		<path class="st2" d="M557.3,1033.4c0.1-31.4-1.1-62.7,0-94.1c0.2-6.5-0.2-14.3-0.2-26.7c62.7-20.7,130.5-41.2,193.2-61.7
			c10.1-3.3,20.7-5.3,31-7.8c0.4,43.1,0.4,86.1,1.4,129.2c0.3,13.3-5.8,19-17.6,22.8c-64.6,21.1-143.9,41.8-208.3,63.3"/>
		<path class="st3" d="M551.2,180c10.5-33,21.1-66.1,31.6-99.1c13.2-41.3,37-59,80.7-59.1c65.3-0.2,130.7-0.1,196,0
			c14.6,0,33.6-3.2,34.1,18.2c0.5,21.4-18.1,19.5-33,19.5c-63.7,0-127.4-0.1-191,0.1c-34.5,0.1-42.2,5.6-52,37.5
			c-9.7,31.6-18.8,63.3-28.2,95c9.5,20.3-0.1,37.6-8.5,55c-3.8,10.8-4.9,22.3-9,33.1c-0.8,4.1-2.9,7.7-4.7,11.4
			c-19.1,23.9-35,23.1-51.4-2.5c-3.3-9.9-3-19.5,2.6-28.5c3.9-11,5.3-22.7,8.6-33.8C532.6,209.8,532.1,189.8,551.2,180z"/>
		<path class="st4" d="M526.3,261c-1.7,8-3.4,16-5.2,24c-2.4,9.6-7.6,16.7-17.5,19.7c-6.2,7.2-13.3,4.3-20.4,1.9
			c-92.3-30.8-184.7-61.5-277-92.4c-4.5-1.5-8.4-5-12.6-7.6c26.5-8.9,53.1-17.7,79.6-26.6c21.7-5.2,42.2-1.2,63.2,5.5
			c56,17.7,111.1,38.4,167.3,55.2C514.5,244,524.1,248.3,526.3,261z"/>
		<path class="st5" d="M781.6,265.6c-31.1,34.6-51.1,76.6-77.4,114.5c-38.6,55.6-21,61.6-79.5,10.5c-21.1-18.4-42.1-36.9-63.2-55.4
			c-0.1-1.6,0.1-3.2,0.6-4.7c11-19.5,31.8-22.5,50.3-28.9c6.7-2.3,14.3-2.1,21.3-4.3c16.8-11.8,39-9.5,55.7-21.5
			c28.5-10.7,56.9-22,88.3-19.4C782.5,257.9,782.6,261.5,781.6,265.6z"/>
		<path class="st6" d="M551.2,180c-5.2,17.5-10.5,35-15.7,52.5c-11.3,8.2-23.2,6.8-35.4,2.7c-49.4-16.6-98.9-32.6-148.2-49.7
			c-11.2-3.9-24.9-6.8-24-23.7c24.1-8.4,48.4-16.5,72.4-25.4c9.4-3.5,17.7-1,26.4,1.9C468.2,152.2,509.7,166.1,551.2,180z"/>
		<path class="st7" d="M777.6,256.4c-27.2,13.6-56.7,20.9-85.5,29.9c-38.1,5.5-71.3-11.4-105.5-23.4c-7.4-2.6-11.8-8.5-13.6-16.1
			c5.5-18.2,11-36.5,16.5-54.7C652.2,213.5,714.9,235,777.6,256.4z"/>
		<path class="st0" d="M328,161.8c15.9,13,36.1,15.8,54.7,21.8c50.9,16.4,100.6,36.7,152.9,48.9c-3.1,9.5-6.1,19-9.2,28.5
			c-77.1-25.9-154.1-51.9-231.2-77.6c-6.9-2.3-14.5-2.3-21.8-3.3C291.5,174,309.8,167.9,328,161.8z"/>
		<path class="st8" d="M383.6,495c38.3-6.3,65.7,10.7,86.3,41c19.7,28.9,19.8,58.2,1.3,88.3c-10.3,16.9-18.3,35.2-27.7,52.7
			c-13.4,25-32.6,30.3-54.1,12.3c-11.1-9.3-20.9-11.5-35-10.9c-22.2,0.9-37.1-14.1-45.1-33.3c-15.6-37.4-30.3-75.2-43.6-113.4
			c-11.2-32.1-2.6-52.1,25.8-68.6c28.1-2.7,49.1,15.1,72.8,25.2C370.8,490.8,375.8,496.9,383.6,495z"/>
		<path class="st9" d="M363.1,494.6c-25.1-7.6-51-13.4-71.4-31.6c-9-13.7-26.9-30.2-17.7-43.1c8.7-12.2,27.8,4.5,42.5,7.7
			c19.6,4.3,32.6,18.8,46.3,32.1C376,471.3,376,482.9,363.1,494.6z"/>
		<path class="st10" d="M636.8,305.2c-24.9,8.4-49.8,16.9-74.7,25.3c-9.6-0.2-18.4-2.3-24.8-10.1c1.9-6.3,6.9-8.6,12.8-10.3
			c13.1-3.9,16.1-12.8,11.4-25c0.8-3.4,1.6-6.8,2.4-10.3c18.4-8.2,63.2,0.5,74.9,14.5C643.7,295.3,645,300.9,636.8,305.2z"/>
		<path class="st11" d="M561.4,285.1c8.3,3.4,17.6,7,15.4,18.2c-1.8,8.8-10.3,11.9-18.2,13.8c-7,1.6-14.2,2.2-21.4,3.3
			c-12.1-3.3-24.6-5.7-33.5-15.7c-0.6-12.2,7.6-16.7,17.5-19.7C537.5,306.3,543.8,306.3,561.4,285.1z"/>
		<path class="st12" d="M363.1,494.6c-0.1-11.6-0.2-23.2-0.2-34.9c1.4-5.6,2.2-12.5,9.9-11.9c6.7,0.5,9.2,6.4,9.6,12.6
			c0.6,11.5,0.9,23.1,1.2,34.6c-1.8,6.6,1.8,17.3-8.5,17.8C364.1,513.3,364.5,502.6,363.1,494.6z"/>
		<path class="st0" d="M636.8,305.2c2.5-6.4-1.1-8.8-6.5-10.5c-22.1-6.8-43.2-16.6-66.4-19.8c3.1-9.4,6.1-18.8,9.1-28.2
			c39.7,13.2,79.4,26.4,119.1,39.6C673.7,292.6,655.2,298.9,636.8,305.2z"/>
	</g>
</g>
</svg>
